REM MD5 0e5ef0f62c12dbf8d7c93c59ace830a5
FILE "Vigilante 8 (Japan) (Demo).bin" BINARY
  TRACK 01 MODE2/2352
    INDEX 01 00:00:00
  TRACK 02 AUDIO
    INDEX 00 04:41:25
    INDEX 01 04:43:25
  TRACK 03 AUDIO
    INDEX 00 07:13:68
    INDEX 01 07:15:68
REM LEADOUT 09:46:36
